Land_normalized_Motion_pl08
version=1
nRows=25
nColumns=43
inDegrees=yes
endheader
time		pelvis_tilt		pelvis_list		pelvis_rotation		pelvis_tx		pelvis_ty		pelvis_tz		hip_flexion_r		hip_adduction_r		hip_rotation_r		knee_angle_r		ankle_angle_r		subtalar_angle_r		mtp_angle_r		hip_flexion_l		hip_adduction_l		hip_rotation_l		knee_angle_l		ankle_angle_l		subtalar_angle_l		mtp_angle_l		lumbar_extension		lumbar_bending		lumbar_rotation		neck_flexion		neck_lateral_bending		neck_rotation		arm_flex_r		arm_add_r		arm_rot_r		elbow_flex_r		pro_sup_r		wrist_flex_r		wrist_dev_r		hand_finger_flex_r		arm_flex_l		arm_add_l		arm_rot_l		elbow_flex_l		pro_sup_l		wrist_flex_l		wrist_dev_l		hand_finger_flex_l		
1.997500		-3.279536		14.859084		94.231059		-0.028867		0.495831		0.441795		74.612934		-6.953358		1.701717		-130.433139		12.575738		-7.307873		24.924066		69.355521		2.114468		-6.511545		-126.980865		22.554610		-14.973355		25.729251		-67.027365		-1.806083		-5.369328		9.504484		3.772324		-3.601759		84.954287		-32.101878		39.373209		63.721782		97.990426		-30.328054		0.885270		43.613535		78.307295		-27.862003		27.944803		72.985583		129.685811		-13.618990		15.845489		90.000210		
2.000227		-3.306609		14.655121		94.212848		-0.029137		0.492392		0.440934		75.226156		-7.135058		1.636664		-130.944997		12.677037		-7.457012		24.941754		69.818293		1.983638		-6.713633		-127.449018		22.924698		-14.833892		25.896774		-67.115495		-1.787938		-5.362270		9.773534		3.658240		-3.617472		86.648451		-31.479019		39.845239		63.349123		98.049545		-30.374420		0.733891		43.408999		80.166579		-27.455941		28.996272		73.004648		129.726464		-13.586149		15.849680		90.000210		
2.002955		-3.320906		14.444799		94.203673		-0.029386		0.489091		0.440082		75.830730		-7.303084		1.586286		-131.434572		12.765994		-7.565894		24.961105		70.286760		1.850156		-6.886876		-127.899228		23.261225		-14.707826		26.050336		-67.196897		-1.757535		-5.345750		10.048674		3.546481		-3.632667		88.260279		-30.849270		40.230153		62.985727		98.125986		-30.412451		0.605771		43.212055		81.980681		-27.027243		29.984713		73.012056		129.788293		-13.537598		15.871250		90.000210		
2.005682		-3.326073		14.227285		94.192050		-0.029619		0.485909		0.439212		76.436440		-7.464469		1.534392		-131.912945		12.839455		-7.639037		24.982996		70.760638		1.724333		-7.039527		-128.336877		23.554666		-14.588576		26.196265		-67.268662		-1.727694		-5.319344		10.328809		3.444021		-3.646509		89.798984		-30.220367		40.540197		62.632480		98.209909		-30.441361		0.489856		43.014125		83.748599		-26.587214		30.931017		73.007763		129.866087		-13.484996		15.910270		90.000210		
2.008409		-3.322257		14.008265		94.186184		-0.029827		0.482902		0.438395		77.022632		-7.608629		1.486911		-132.359601		12.910020		-7.678917		25.007134		71.235314		1.611381		-7.171673		-128.748068		23.795161		-14.509908		26.313363		-67.343260		-1.689571		-5.278827		10.641728		3.347258		-3.655540		91.234368		-29.562767		40.685622		62.295498		98.284290		-30.463379		0.408427		42.837825		85.423435		-26.064863		31.678847		72.964836		129.963436		-13.447972		15.935453		90.000210		
2.011136		-3.307017		13.772763		94.181437		-0.030054		0.479981		0.437543		77.617487		-7.755943		1.443030		-132.791899		12.968688		-7.690574		25.034550		71.732696		1.499689		-7.294174		-129.155333		23.988947		-14.446361		26.413466		-67.396624		-1.646447		-5.223322		10.938230		3.265925		-3.678488		92.608999		-28.926705		40.782266		61.975709		98.375429		-30.457142		0.339838		42.672182		87.065302		-25.549988		32.437288		72.918421		130.101554		-13.399547		15.929168		90.000210		
2.013864		-3.288199		13.511894		94.182578		-0.030281		0.477033		0.436659		78.249358		-7.922368		1.409307		-133.226369		13.001680		-7.685292		25.071452		72.278877		1.371289		-7.421797		-129.582043		24.147511		-14.342403		26.545024		-67.411385		-1.604726		-5.157090		11.177055		3.219466		-3.725812		93.957522		-28.353703		40.942062		61.672697		98.486545		-30.433644		0.229874		42.449066		88.747503		-25.129508		33.421286		72.912305		130.246292		-13.352890		15.938691		90.000210		
2.016591		-3.270545		13.247275		94.182895		-0.030501		0.474300		0.435797		78.855704		-8.078885		1.380042		-133.624380		13.031861		-7.662184		25.115724		72.813260		1.262079		-7.534469		-129.971371		24.253142		-14.259800		26.672945		-67.430824		-1.568046		-5.095178		11.459344		3.184138		-3.775516		95.204158		-27.749322		40.938851		61.388307		98.566372		-30.435115		0.130397		42.207721		90.323433		-24.622368		34.175724		72.844617		130.366022		-13.378015		15.944605		90.000210		
2.019318		-3.249949		12.970554		94.188873		-0.030731		0.471676		0.434933		79.458601		-8.241290		1.361699		-133.999046		13.053868		-7.615910		25.166398		73.364359		1.152924		-7.638566		-130.347679		24.307135		-14.188006		26.798153		-67.435886		-1.526068		-5.029835		11.732812		3.158336		-3.846300		96.393263		-27.157634		40.878155		61.124185		98.651816		-30.429803		0.036873		41.965131		91.846500		-24.108758		34.883757		72.758314		130.506968		-13.440999		15.913167		90.000210		
2.022045		-3.232232		12.681056		94.195122		-0.030954		0.469137		0.434087		80.072368		-8.413852		1.346913		-134.358203		13.067107		-7.544620		25.225136		73.936676		1.047415		-7.736990		-130.717068		24.307165		-14.109035		26.930863		-67.428020		-1.487517		-4.963967		11.999877		3.144461		-3.934419		97.530694		-26.576439		40.778435		60.879813		98.747562		-30.424009		-0.062140		41.710168		93.335024		-23.599451		35.572473		72.656239		130.665619		-13.550049		15.853140		90.000210		
2.024773		-3.223992		12.422618		94.184485		-0.031169		0.466873		0.433293		80.622664		-8.572163		1.328641		-134.682624		13.092698		-7.482636		25.269512		74.450465		0.961234		-7.816970		-131.056698		24.297693		-14.050295		27.021108		-67.465711		-1.457300		-4.904870		12.310964		3.097747		-3.991125		98.621680		-25.948722		40.581260		60.633164		98.807622		-30.453763		-0.116635		41.520091		94.696261		-22.999763		35.954536		72.487968		130.806375		-13.654070		15.793080		90.000210		
2.027500		-3.193257		12.090350		94.197376		-0.031421		0.464370		0.432419		81.276677		-8.765589		1.323347		-135.020282		13.076948		-7.333489		25.342151		75.111125		0.830849		-7.911142		-131.443653		24.153497		-13.901893		27.179732		-67.391671		-1.411232		-4.827506		12.512096		3.120287		-4.129263		99.670034		-25.437949		40.497462		60.445614		98.933744		-30.438071		-0.249874		41.245487		96.168392		-22.601859		36.825326		72.425945		131.048179		-13.811020		15.671066		90.000210		
2.030227		-3.174926		11.770596		94.200621		-0.031604		0.462082		0.431582		81.887699		-8.925169		1.335480		-135.330440		13.081973		-7.178182		25.430780		75.743602		0.695339		-7.982555		-131.803676		23.993510		-13.734482		27.383724		-67.336702		-1.381204		-4.764975		12.746859		3.131914		-4.215119		100.647519		-24.885269		40.307249		60.261077		99.011431		-30.444821		-0.376334		40.927137		97.528156		-22.127388		37.457782		72.291056		131.246813		-14.059207		15.602895		90.000210		
2.032955		-3.144480		11.469586		94.188735		-0.031789		0.459904		0.430745		82.461407		-9.071119		1.336105		-135.623598		13.093083		-7.008550		25.525503		76.359247		0.545512		-8.035108		-132.164452		23.801524		-13.543998		27.610348		-67.290277		-1.353462		-4.693644		12.967180		3.128418		-4.285865		101.588561		-24.335475		40.108599		60.090328		99.047684		-30.443163		-0.481428		40.608647		98.823821		-21.651825		38.018905		72.154563		131.445196		-14.288901		15.561168		90.000210		
2.035682		-3.101208		11.174902		94.169644		-0.031948		0.457846		0.429890		83.003699		-9.207787		1.328227		-135.899766		13.114020		-6.827540		25.624075		76.969826		0.370819		-8.062224		-132.528494		23.580808		-13.326365		27.850663		-67.243313		-1.319329		-4.597309		13.174331		3.120296		-4.345346		102.492845		-23.794631		39.907906		59.934257		99.039566		-30.447218		-0.571122		40.294534		100.066526		-21.177836		38.533221		72.013594		131.642342		-14.457735		15.543602		90.000210		
2.038409		-3.037275		10.885589		94.144003		-0.032091		0.455847		0.429028		83.521493		-9.324083		1.303786		-136.163502		13.147843		-6.631383		25.729882		77.583450		0.181315		-8.059612		-132.891595		23.337335		-13.080046		28.107574		-67.187110		-1.280425		-4.482852		13.355554		3.112379		-4.403719		103.356298		-23.271452		39.712802		59.799709		98.988482		-30.462505		-0.656830		39.979624		101.261770		-20.706207		39.016164		71.872335		131.833568		-14.552089		15.547072		90.000210		
2.041136		-2.981763		10.629551		94.109234		-0.032276		0.454035		0.428161		83.975722		-9.456251		1.275546		-136.405039		13.195131		-6.473983		25.817327		78.133703		-0.000808		-8.063663		-133.240791		23.139980		-12.871373		28.311589		-67.161882		-1.245066		-4.361179		13.540756		3.077348		-4.440988		104.192590		-22.745222		39.497561		59.655649		98.920020		-30.503527		-0.716341		39.725381		102.360510		-20.183905		39.330482		71.701902		131.983615		-14.586208		15.558646		90.000210		
2.043864		-2.896353		10.354837		94.072466		-0.032426		0.452216		0.427282		84.434816		-9.564007		1.227262		-136.638478		13.258956		-6.268757		25.914925		78.724608		-0.191838		-8.019583		-133.591210		22.882554		-12.614117		28.515885		-67.100491		-1.200859		-4.215190		13.675426		3.060440		-4.516615		104.988043		-22.258745		39.317520		59.549237		98.821586		-30.557730		-0.795088		39.480605		103.456626		-19.703774		39.722753		71.546732		132.146277		-14.527866		15.562918		90.000210		
2.046591		-2.812246		10.087185		94.030259		-0.032604		0.450503		0.426426		84.871627		-9.670599		1.183718		-136.851516		13.335379		-6.073708		26.013446		79.294444		-0.365712		-7.964980		-133.921937		22.651403		-12.367832		28.718430		-67.043715		-1.159482		-4.070153		13.801033		3.032967		-4.583618		105.756384		-21.776706		39.133989		59.448857		98.711004		-30.620452		-0.874902		39.243505		104.502080		-19.208720		40.050046		71.368589		132.289469		-14.461146		15.576025		90.000210		
2.049318		-2.758102		9.861759		93.998945		-0.032886		0.449018		0.425607		85.232714		-9.811061		1.164868		-137.044949		13.410663		-5.946137		26.079158		79.772400		-0.526734		-7.983349		-134.206785		22.477763		-12.188255		28.837507		-67.031291		-1.106890		-3.921171		13.944614		2.961603		-4.620861		106.516930		-21.288542		38.923069		59.309996		98.623639		-30.694251		-0.919969		39.084075		105.452494		-18.657425		40.208026		71.155630		132.390729		-14.413892		15.579238		90.000210		
2.052045		-2.613664		9.520962		93.961002		-0.032936		0.447248		0.424716		85.707687		-9.854591		1.091202		-137.260398		13.547103		-5.598500		26.237498		80.447056		-0.682992		-7.766701		-134.533638		22.114046		-11.806129		29.127751		-66.869004		-1.056964		-3.758193		13.975803		2.982567		-4.784930		107.195575		-20.908736		38.834096		59.301503		98.413619		-30.765434		-1.089461		38.794559		106.523087		-18.258315		40.716903		70.969621		132.555138		-14.246097		15.586838		90.000210		
2.054773		-2.553251		9.288487		93.916989		-0.033262		0.445959		0.423903		86.042538		-10.006147		1.062441		-137.401868		13.645279		-5.445563		26.325792		80.896099		-0.829216		-7.767179		-134.776350		21.980966		-11.609118		29.296309		-66.839919		-1.006864		-3.590908		14.074549		2.930650		-4.806814		107.889134		-20.467785		38.643076		59.211371		98.273123		-30.848154		-1.167587		38.611536		107.376268		-17.727343		40.816281		70.773326		132.629034		-14.197395		15.603047		90.000210		
2.057500		-2.272032		8.858168		93.846638		-0.033286		0.444156		0.423030		86.549467		-10.032116		0.854918		-137.559900		13.924132		-4.795233		26.863581		81.660017		-1.029162		-7.357969		-135.086740		21.862205		-10.907535		30.520228		-66.550505		-0.917507		-3.283340		14.079241		3.056839		-4.897862		108.490742		-20.209643		38.710708		59.260824		97.342639		-31.011538		-1.632362		37.715148		108.251224		-17.230552		41.080397		70.577187		132.682050		-13.972248		15.783073		90.000210		
2.060227		-2.283786		8.699467		93.811650		-0.033623		0.443275		0.422274		86.785357		-10.165322		0.915422		-137.686567		13.952002		-4.783923		26.919352		81.976220		-1.121258		-7.387475		-135.280170		21.616477		-10.776680		30.636341		-66.607386		-0.884187		-3.180158		14.168224		2.876837		-4.883378		109.183253		-19.764939		38.575754		59.151873		97.259354		-31.050544		-1.643080		37.601847		109.057309		-16.728180		41.122464		70.316039		132.772289		-13.961779		15.772103		90.000210		
2.062955		-2.250851		8.479653		93.776682		-0.033745		0.442218		0.421502		87.090417		-10.230481		0.937051		-137.840532		14.012217		-4.623706		27.052890		82.405695		-1.218907		-7.296693		-135.492020		21.277028		-10.519346		30.907750		-66.581352		-0.869648		-3.081663		14.239915		2.797142		-4.920486		109.822811		-19.399377		38.539126		59.120082		97.039338		-31.091355		-1.732777		37.394609		109.919565		-16.300398		41.344909		70.066977		132.900153		-13.906011		15.747473		90.000210		
